<svg id="Camada_1" data-name="Camada 1" xmlns="http://www.w3.org/2000/svg" viewBox="0 0 298 196.67"><defs><style>.cls-1{fill:#245a9b;}.cls-2{fill:#fff;fill-rule:evenodd;}</style></defs><path class="cls-1" d="M149,173.44a75.11,75.11,0,1,1,75.11-75.11A75.2,75.2,0,0,1,149,173.44Z"/><path class="cls-2" d="M137.22,98.69v43.53a1.13,1.13,0,0,0,1.14,1.13h16.16a1.12,1.12,0,0,0,1.13-1.13V98h11.72a1.13,1.13,0,0,0,1.13-1l1.13-13.33a1.13,1.13,0,0,0-1.13-1.23H155.65V72.92a4,4,0,0,1,4-4h9a1.13,1.13,0,0,0,1.13-1.13V54.45a1.13,1.13,0,0,0-1.13-1.14H153.44a16.22,16.22,0,0,0-16.22,16.22V82.38h-8.08A1.13,1.13,0,0,0,128,83.52V96.85A1.13,1.13,0,0,0,129.14,98h8.08Z"/></svg>