<svg id="Camada_1" data-name="Camada 1" xmlns="http://www.w3.org/2000/svg" xmlns:xlink="http://www.w3.org/1999/xlink" viewBox="0 0 298 196.67"><defs><style>.cls-1{fill:#fff;}.cls-2{fill:url(#Degradado_sin_nombre_2);}</style><linearGradient id="Degradado_sin_nombre_2" x1="223.89" y1="464.28" x2="409.01" y2="306.64" gradientTransform="translate(-135.18 -314.61)" gradientUnits="userSpaceOnUse"><stop offset="0" stop-color="#ffe185"/><stop offset="0.21" stop-color="#ffbb36"/><stop offset="0.38" stop-color="#ff5176"/><stop offset="0.52" stop-color="#f63395"/><stop offset="0.74" stop-color="#a436d2"/><stop offset="1" stop-color="#5f4eed"/></linearGradient></defs><circle class="cls-1" cx="148.94" cy="97.7" r="65.36"/><path class="cls-2" d="M149,173a74.62,74.62,0,1,1,74.62-74.62A74.71,74.71,0,0,1,149,173ZM174.16,68.06a5.52,5.52,0,1,0,5.52,5.52A5.52,5.52,0,0,0,174.16,68.06Zm-24.55,7.08a23.2,23.2,0,1,0,23.2,23.19A23.21,23.21,0,0,0,149.61,75.14Zm0,38.05a14.86,14.86,0,1,1,14.86-14.86A14.87,14.87,0,0,1,149.61,113.19Zm46.8-34.13a28.28,28.28,0,0,0-28.29-28.29H130.78a28.29,28.29,0,0,0-28.29,28.29V116.4a28.3,28.3,0,0,0,28.29,28.29h37.34a28.29,28.29,0,0,0,28.29-28.29Zm-8.86,37.34a19.43,19.43,0,0,1-19.43,19.43H130.78a19.43,19.43,0,0,1-19.43-19.43V79.06a19.43,19.43,0,0,1,19.43-19.43h37.34a19.43,19.43,0,0,1,19.43,19.43Z"/></svg>