<svg id="Camada_1" data-name="Camada 1" xmlns="http://www.w3.org/2000/svg" viewBox="0 0 298 196.67"><defs><style>.cls-1{fill:#007bbc;}.cls-2{fill:#fff;}</style></defs><path class="cls-1" d="M149,173.34a75,75,0,1,1,75-75A75.09,75.09,0,0,1,149,173.34Z"/><path class="cls-2" d="M191.4,104v28a1.25,1.25,0,0,1-1.25,1.25H175.69a1.25,1.25,0,0,1-1.25-1.25V106c0-6.86-2.45-11.54-8.59-11.54a9.27,9.27,0,0,0-8.7,6.2,11.57,11.57,0,0,0-.56,4.14v27.24a1.26,1.26,0,0,1-1.26,1.25H140.88a1.24,1.24,0,0,1-1.25-1.25c0-6.94.18-40.59,0-48.5a1.24,1.24,0,0,1,1.25-1.27h14.42a1.25,1.25,0,0,1,1.26,1.25v6a1.77,1.77,0,0,0-.12.17h.12v-.17c2.25-3.47,6.27-8.43,15.29-8.43,11.16,0,19.52,7.3,19.52,23ZM114.54,133.3H129a1.25,1.25,0,0,0,1.25-1.25V83.53A1.25,1.25,0,0,0,129,82.28H114.54a1.25,1.25,0,0,0-1.26,1.25v48.52A1.25,1.25,0,0,0,114.54,133.3Z"/><circle class="cls-2" cx="121.25" cy="66.71" r="9.08"/></svg>