<svg id="Camada_1" data-name="Camada 1" xmlns="http://www.w3.org/2000/svg" viewBox="0 0 298 196.67"><defs><style>.cls-1{fill:#0cf;}.cls-2,.cls-3{fill:#fff;}.cls-3{fill-rule:evenodd;}</style></defs><path class="cls-1" d="M149,173.44a75.11,75.11,0,1,1,75.11-75.11A75.2,75.2,0,0,1,149,173.44Z"/><path class="cls-2" d="M192.17,70.92a36.15,36.15,0,0,1-8.85,2.53c1.43-.24,3.53-2.82,4.37-3.86a16.28,16.28,0,0,0,2.94-5.37c.08-.15.14-.34,0-.46a.52.52,0,0,0-.46,0,44.92,44.92,0,0,1-10.51,4,.69.69,0,0,1-.72-.19,9.12,9.12,0,0,0-.92-.94,18.64,18.64,0,0,0-5.09-3.12,17.63,17.63,0,0,0-7.8-1.25,18.5,18.5,0,0,0-7.41,2.09,19,19,0,0,0-6,4.88,18.35,18.35,0,0,0-3.57,7.14A19.53,19.53,0,0,0,148,84c.06.43,0,.48-.36.43-14.43-2.15-26.38-7.31-36.09-18.38-.42-.48-.65-.48-1,0-4.25,6.37-2.19,16.6,3.12,21.63.71.67,1.44,1.34,2.22,2a18.46,18.46,0,0,1-7-2c-.43-.27-.64-.12-.68.36a11.36,11.36,0,0,0,.12,2.07,18.49,18.49,0,0,0,11.41,14.75,10.3,10.3,0,0,0,2.31.71c-1.39.31-2.83.53-6.83.21-.5-.09-.69.16-.5.63,3,8.2,9.5,10.63,14.35,12,.66.12,1.31.12,2,.27,0,.06-.08.06-.12.11-1.61,2.46-7.2,4.29-9.8,5.2a35,35,0,0,1-14.89,1.9c-.8-.11-1-.1-1.18,0s0,.33.23.54c1,.67,2,1.26,3.1,1.84a49.46,49.46,0,0,0,10,4c17.88,4.94,38,1.31,51.46-12C180.33,109.77,184,95.32,184,80.85c0-.56.67-.87,1.06-1.17a34.2,34.2,0,0,0,7-7.29A2.12,2.12,0,0,0,192.5,71v-.08C192.5,70.69,192.52,70.76,192.17,70.92Z"/><path class="cls-3" d="M131,134.08Z"/><path class="cls-3" d="M131,134.08Z"/><path class="cls-3" d="M133.9,134.15c0-.14,1.55,0,0,0C133.9,134.08,134.09,134.15,133.9,134.15Z"/><path class="cls-3" d="M164.86,62.39a.33.33,0,0,1-.36,0Z"/></svg>