<svg id="Camada_1" data-name="Camada 1" xmlns="http://www.w3.org/2000/svg" viewBox="0 0 298 196.67"><defs><style>.cls-1{fill:#00fb73;}.cls-2{fill:#fff;fill-rule:evenodd;}</style></defs><path class="cls-1" d="M149,173.44a75.11,75.11,0,1,1,75.11-75.11A75.2,75.2,0,0,1,149,173.44Z"/><path class="cls-2" d="M152.54,49.44a45.34,45.34,0,0,0-38.1,69.92l-6.89,15.18a4,4,0,0,0,3.61,5.6,3.81,3.81,0,0,0,1-.15l19-5.2a45.35,45.35,0,1,0,21.35-85.35Zm0,82.78a37.4,37.4,0,0,1-18.84-5.1,3.93,3.93,0,0,0-2-.54,4.21,4.21,0,0,0-1,.14l-12.4,3.4,4.32-9.51a4,4,0,0,0-.39-4,37.42,37.42,0,1,1,30.36,15.56Z"/><path class="cls-2" d="M170,101.58c-1.9-1.14-4.37-2.4-6.61-1.49-1.71.7-2.81,3.39-3.92,4.76a1.63,1.63,0,0,1-2.13.46,29.92,29.92,0,0,1-14.94-12.79,1.83,1.83,0,0,1,.24-2.5c1.07-1.27,2.42-2.7,2.71-4.41s-.51-3.69-1.21-5.21c-.91-1.94-1.91-4.7-3.85-5.8a5.27,5.27,0,0,0-5.73.85,11.62,11.62,0,0,0-4,9.21,13.13,13.13,0,0,0,.36,2.93,24.19,24.19,0,0,0,2.8,6.46,52.52,52.52,0,0,0,2.93,4.45,45.32,45.32,0,0,0,12.7,11.79,38.61,38.61,0,0,0,7.92,3.77c3.1,1,5.87,2.09,9.22,1.45,3.5-.66,7-2.84,8.35-6.22a5.33,5.33,0,0,0,.39-3.17C174.7,103.94,171.75,102.64,170,101.58Z"/></svg>