<svg id="Camada_1" data-name="Camada 1" xmlns="http://www.w3.org/2000/svg" viewBox="0 0 298 196.67"><defs><style>.cls-1{fill:red;}.cls-2{fill:#fff;}</style></defs><path class="cls-1" d="M149,173.44a75.11,75.11,0,1,1,75.11-75.11A75.2,75.2,0,0,1,149,173.44Z"/><path class="cls-2" d="M194,86.94a19.29,19.29,0,0,0-19.29-19.29h-50a19.29,19.29,0,0,0-19.29,19.29v23.45a19.29,19.29,0,0,0,19.29,19.29h50A19.29,19.29,0,0,0,194,110.39ZM162.41,99.85l-19.95,10.94c-.87.47-1.65-.16-1.65-1.14V87.18c0-1,.8-1.62,1.67-1.13l20.09,11.52A1.31,1.31,0,0,1,162.41,99.85Z"/></svg>